<?xml version="1.0" encoding="utf-8"?>
<!-- Generator: Adobe Illustrator 22.0.1, SVG Export Plug-In . SVG Version: 6.00 Build 0)  -->
<svg version="1.1" id="Layer_1" xmlns="http://www.w3.org/2000/svg" xmlns:xlink="http://www.w3.org/1999/xlink" x="0px" y="0px"
	 viewBox="0 0 508 508" style="enable-background:new 0 0 508 508;" xml:space="preserve">
<style type="text/css">
	.st0{fill:#6B478E;}
	.st1{fill:#FFFFFF;}
	.st2{fill:#636CB2;}
	.st3{fill:#DDDDDD;}
	.st4{fill:#999999;}
	.st5{fill:#E6E9EE;}
	.st6{fill:#63D0DF;}
	.st7{fill:#2B3B4E;}
	.st8{fill:#324A5E;}
</style>
<circle class="st0" cx="254" cy="254" r="254"/>
<path class="st1" d="M406.8,118H135.2c-9.6,0-17.2,7.6-17.2,17.2V346c0,9.6,7.6,17.2,17.2,17.2h271.6c9.6,0,17.2-7.6,17.2-17.2
	V134.8C424,125.6,416.4,118,406.8,118z"/>
<path class="st2" d="M406.8,108.8H135.2c-9.6,0-17.2,7.6-17.2,17.2v40.8h306V126C424,116.8,416.4,108.8,406.8,108.8z"/>
<g>
	<rect x="234.4" y="183.6" class="st3" width="24.4" height="24.4"/>
	<rect x="283.2" y="183.6" class="st3" width="24.4" height="24.4"/>
	<rect x="332" y="183.6" class="st3" width="24.4" height="24.4"/>
	<rect x="186" y="228" class="st3" width="24.4" height="24.4"/>
	<rect x="234.4" y="228" class="st4" width="24.4" height="24.4"/>
	<rect x="283.2" y="228" class="st3" width="24.4" height="24.4"/>
	<rect x="332" y="228" class="st3" width="24.4" height="24.4"/>
	<rect x="186" y="272.8" class="st5" width="24.4" height="24.4"/>
	<rect x="234.4" y="272.8" class="st3" width="24.4" height="24.4"/>
	<rect x="283.2" y="272.8" class="st3" width="24.4" height="24.4"/>
	<rect x="332" y="272.8" class="st4" width="24.4" height="24.4"/>
	<rect x="186" y="317.2" class="st5" width="24.4" height="24.4"/>
	<rect x="234.4" y="317.2" class="st5" width="24.4" height="24.4"/>
	<rect x="283.2" y="317.2" class="st3" width="24.4" height="24.4"/>
</g>
<path class="st6" d="M171.2,231.2L171.2,231.2c-50.8,0-92,41.2-92,92l0,0c0,50.8,41.2,92,92,92l0,0c50.8,0,92-41.2,92-92l0,0
	C263.2,272.4,222,231.2,171.2,231.2z"/>
<path class="st1" d="M171.2,252L171.2,252c-39.2,0-71.2,32-71.2,71.2l0,0c0,39.2,32,71.2,71.2,71.2l0,0c39.2,0,71.2-32,71.2-71.2
	l0,0C242,284,210.4,252,171.2,252z"/>
<path class="st7" d="M168.4,281.2l-3.2,51.2c-0.4,3.2,2,6.4,5.6,6.4s6-2.8,6-6l-3.2-51.6c0-1.2-1.2-2.4-2.4-2.4l0,0
	C169.6,279.2,168.8,280,168.4,281.2z"/>
<path class="st8" d="M206.4,316.4l-46.8,3.2c-3.2,0.4-5.6,2.8-5.2,5.6c0.4,3.2,3.2,5.2,6.4,4.8l46.4-9.2c1.2-0.4,2-1.2,1.6-2.4l0,0
	C208.4,317.2,207.6,316.4,206.4,316.4z"/>
<circle class="st2" cx="171.2" cy="323.2" r="8.4"/>
<g>
	<circle class="st5" cx="171.2" cy="263.2" r="5.6"/>
	<circle class="st5" cx="171.2" cy="380.4" r="5.6"/>
	<circle class="st5" cx="229.6" cy="321.6" r="5.6"/>
	<circle class="st5" cx="112.4" cy="321.6" r="5.6"/>
	<circle class="st5" cx="212.4" cy="280.4" r="5.6"/>
	<circle class="st5" cx="129.6" cy="363.2" r="5.6"/>
	<circle class="st5" cx="212.4" cy="363.2" r="5.6"/>
	<circle class="st5" cx="129.6" cy="280.4" r="5.6"/>
</g>
<g>
	<circle class="st1" cx="348.4" cy="138.8" r="12.4"/>
	<circle class="st1" cx="194" cy="138.8" r="12.4"/>
</g>
</svg>
