<?xml version="1.0" encoding="utf-8"?>
<!-- Generator: Adobe Illustrator 22.0.1, SVG Export Plug-In . SVG Version: 6.00 Build 0)  -->
<svg version="1.1" id="Capa_1" xmlns="http://www.w3.org/2000/svg" xmlns:xlink="http://www.w3.org/1999/xlink" x="0px" y="0px"
	 viewBox="0 0 47 60" style="enable-background:new 0 0 47 60;" xml:space="preserve">
<path d="M36,22H11c-0.6,0-1,0.4-1,1s0.4,1,1,1h25c0.6,0,1-0.4,1-1S36.6,22,36,22z"/>
<path d="M11,16h10c0.6,0,1-0.4,1-1s-0.4-1-1-1H11c-0.6,0-1,0.4-1,1S10.4,16,11,16z"/>
<path d="M36,30H11c-0.6,0-1,0.4-1,1s0.4,1,1,1h25c0.6,0,1-0.4,1-1S36.6,30,36,30z"/>
<path d="M36,38H11c-0.6,0-1,0.4-1,1s0.4,1,1,1h25c0.6,0,1-0.4,1-1S36.6,38,36,38z"/>
<path d="M36,46H11c-0.6,0-1,0.4-1,1s0.4,1,1,1h25c0.6,0,1-0.4,1-1S36.6,46,36,46z"/>
<path d="M32.4,0H0v60h47V14.6L32.4,0z M33,3.4L43.6,14H33V3.4z M2,58V2h29v14h14v42H2z"/>
</svg>
