<?xml version="1.0" encoding="utf-8"?>
<!-- Generator: Adobe Illustrator 22.0.1, SVG Export Plug-In . SVG Version: 6.00 Build 0)  -->
<svg version="1.1" id="Layer_1" xmlns="http://www.w3.org/2000/svg" xmlns:xlink="http://www.w3.org/1999/xlink" x="0px" y="0px"
	 viewBox="0 0 14 14" style="enable-background:new 0 0 14 14;" xml:space="preserve">
<style type="text/css">
	.st0{fill:#63D0DF;}
</style>
<path class="st0" d="M1.8,2.2V0.4C1.8,0.2,1.9,0,2.2,0c0.2,0,0.4,0.2,0.4,0.4v1.8c0,0.2-0.2,0.4-0.4,0.4C1.9,2.6,1.8,2.4,1.8,2.2z
	 M9.2,2.6c0.2,0,0.4-0.2,0.4-0.4V0.4C9.6,0.2,9.4,0,9.2,0C8.9,0,8.7,0.2,8.7,0.4v1.8C8.7,2.4,8.9,2.6,9.2,2.6z M14,10.5
	c0,1.9-1.6,3.5-3.5,3.5C8.6,14,7,12.4,7,10.5C7,8.6,8.6,7,10.5,7C12.4,7,14,8.6,14,10.5L14,10.5z M13.1,10.5c0-1.4-1.2-2.6-2.6-2.6
	c-1.4,0-2.6,1.2-2.6,2.6c0,1.4,1.2,2.6,2.6,2.6C11.9,13.1,13.1,11.9,13.1,10.5L13.1,10.5z M3.5,5.3H1.8V7h1.8L3.5,5.3L3.5,5.3z
	 M1.8,9.6h1.8V7.9H1.8V9.6L1.8,9.6z M4.4,7h1.8V5.3H4.4L4.4,7L4.4,7z M4.4,9.6h1.8V7.9H4.4L4.4,9.6L4.4,9.6z M0.9,10.4v-6h9.6v1.8
	h0.9V2.7c0-0.5-0.4-1-0.9-1h-0.4v0.4c0,0.5-0.4,0.9-0.9,0.9c-0.5,0-0.9-0.4-0.9-0.9V1.7H3.1v0.4c0,0.5-0.4,0.9-0.9,0.9
	c-0.5,0-0.9-0.4-0.9-0.9V1.7H0.9C0.4,1.7,0,2.2,0,2.7v7.7c0,0.5,0.4,1,0.9,1h5.2v-0.9L0.9,10.4C0.9,10.5,0.9,10.5,0.9,10.4L0.9,10.4
	z M8.7,7V5.3H7V7H8.7z M11.8,10.5h-1.3V9.2c0-0.2-0.2-0.4-0.4-0.4S9.6,8.9,9.6,9.2v1.8c0,0.2,0.2,0.4,0.4,0.4h1.8
	c0.2,0,0.4-0.2,0.4-0.4C12.3,10.7,12.1,10.5,11.8,10.5L11.8,10.5z"/>
</svg>
