<?xml version="1.0" encoding="utf-8"?>
<!-- Generator: Adobe Illustrator 22.0.1, SVG Export Plug-In . SVG Version: 6.00 Build 0)  -->
<svg version="1.1" id="Layer_1" xmlns="http://www.w3.org/2000/svg" xmlns:xlink="http://www.w3.org/1999/xlink" x="0px" y="0px"
	 viewBox="0 0 512.1 295.6" style="enable-background:new 0 0 512.1 295.6;" xml:space="preserve">
<style type="text/css">
	.st0{fill:#6B478E;}
</style>
<g>
	<path class="st0" d="M18.1,84.8l12.9,49.4c2.8,10.8,5.4,20.9,7.2,30.9h0.6c2.2-9.8,5.4-20.3,8.6-30.7l15.9-49.6H78l15.1,48.6
		c3.6,11.6,6.4,21.9,8.6,31.7h0.6c1.6-9.8,4.2-20.1,7.5-31.5l13.8-48.8h17.5l-31.3,97.1H93.7l-14.9-46.4
		c-3.4-10.8-6.2-20.4-8.6-31.9h-0.4c-2.4,11.6-5.4,21.7-8.8,32.1l-15.7,46.2h-16L0,84.8H18.1z"/>
	<path class="st0" d="M168.1,84.8l12.9,49.4c2.8,10.8,5.4,20.9,7.2,30.9h0.6c2.2-9.8,5.4-20.3,8.6-30.7l15.9-49.6H228l15.1,48.6
		c3.6,11.6,6.4,21.9,8.6,31.7h0.6c1.6-9.8,4.2-20.1,7.5-31.5l13.8-48.8h17.5l-31.3,97.1h-16.1l-14.9-46.4
		c-3.4-10.8-6.2-20.4-8.6-31.9h-0.4c-2.4,11.6-5.4,21.7-8.8,32.1l-15.7,46.2h-16L150,84.8L168.1,84.8L168.1,84.8L168.1,84.8z"/>
	<path class="st0" d="M318.1,84.8l12.8,49.4c2.8,10.8,5.4,20.9,7.2,30.9h0.6c2.2-9.8,5.5-20.3,8.7-30.7l15.8-49.6h14.9l15.1,48.6
		c3.6,11.6,6.4,21.9,8.6,31.7h0.6c1.6-9.8,4.2-20.1,7.4-31.5l13.9-48.8h17.4l-31.3,97.1h-16l-14.9-46.4c-3.4-10.8-6.2-20.4-8.6-31.9
		h-0.4c-2.4,11.6-5.5,21.7-8.8,32.1l-15.6,46.2h-16.1L300,84.8L318.1,84.8L318.1,84.8L318.1,84.8z"/>
</g>
<g>
	<path class="st0" d="M366.4,260.8c-41.6,0-81.1-20.1-105.6-53.8l11.6-8.4c21.8,30,56.9,48,94,48c64,0,116-52.1,116-116
		s-52.1-116-116-116c-42.9,0-82.2,23.6-102.4,61.5l-12.7-6.8C274.1,26.5,318.2,0,366.4,0c71.9,0,130.4,58.5,130.4,130.4
		S438.3,260.8,366.4,260.8z"/>
	
		<rect x="469.3" y="216.6" transform="matrix(0.7079 -0.7063 0.7063 0.7079 -44.3794 412.4015)" class="st0" width="14.3" height="86.6"/>
</g>
</svg>
