<?xml version="1.0" encoding="utf-8"?>
<!-- Generator: Adobe Illustrator 22.0.1, SVG Export Plug-In . SVG Version: 6.00 Build 0)  -->
<svg version="1.1" id="Layer_1" xmlns="http://www.w3.org/2000/svg" xmlns:xlink="http://www.w3.org/1999/xlink" x="0px" y="0px"
	 viewBox="0 0 59 53" style="enable-background:new 0 0 59 53;" xml:space="preserve">
<path d="M58.9,8.5V0H42.7v3.6h-5.5V11h-4.2V7.4H16.7V16H33v-3.6h4.2v13.6H33v-3.6H16.7v3.6H8.9V14.7H0v23.7h9V27.2h7.8v3.6H33v-3.6
	h4.2v13.6H33v-3.6H16.7v8.5H33v-3.6h4.2v7.2h5.5V53H59v-8.5H42.7v3.7h-4.2V34.7h4.2v3.7h16.3v-8.5H42.7v3.6h-4.2V19.8h4.2v3.6h16.3
	v-8.5H42.7v3.6h-4.2V4.9h4.2v3.6L58.9,8.5L58.9,8.5z M31.7,14.7H18V8.7h13.6C31.7,8.7,31.7,14.7,31.7,14.7z M7.6,37H1.3V16h6.4
	L7.6,37L7.6,37z M31.7,29.5H18v-5.9h13.6C31.7,23.6,31.7,29.5,31.7,29.5z M31.7,44.5H18v-5.9h13.6C31.7,38.5,31.7,44.5,31.7,44.5z
	 M44,45.8h13.6v5.9H44V45.8z M44,31.1h13.6V37H44V31.1z M44,16.2h13.6v5.9H44V16.2z M44,1.3h13.6v5.9H44V1.3z"/>
</svg>
