<?xml version="1.0" encoding="utf-8"?>
<!-- Generator: Adobe Illustrator 22.0.1, SVG Export Plug-In . SVG Version: 6.00 Build 0)  -->
<svg version="1.1" id="Layer_1" xmlns="http://www.w3.org/2000/svg" xmlns:xlink="http://www.w3.org/1999/xlink" x="0px" y="0px"
	 viewBox="0 0 512 459.1" style="enable-background:new 0 0 512 459.1;" xml:space="preserve">
<style type="text/css">
	.st0{fill:#63D0DF;}
	.st1{fill:#7673C0;}
	.st2{fill:#58BCC4;}
	.st3{fill:#6363A5;}
	.st4{fill:#333333;}
</style>
<path class="st0" d="M280.5,49.7v101.5c0,6.5-1.5,12.7-4.2,18.1h-52.1c-17.5,0-32.8,9.1-41.6,22.8h-25.2l-71.1,46l2-46H49.7
	c-22.6,0-40.9-18.3-40.9-40.9V49.7c0-22.6,18.3-40.9,40.9-40.9h189.9C262.2,8.9,280.5,27.2,280.5,49.7z"/>
<path class="st1" d="M503.1,218.7v122.7c0,27.3-22.1,49.4-49.4,49.4H317l-5.9,59.4l-35.3-36.1L253,390.8h-28.9
	c-27.3,0-49.4-22.1-49.4-49.4V218.7c0-9.8,2.9-19,7.8-26.7h0c8.8-13.7,24.1-22.8,41.6-22.8h229.6C481,169.3,503.1,191.5,503.1,218.7
	z"/>
<path class="st2" d="M33.7,151.2V49.7C33.7,27.2,52,8.9,74.6,8.9H49.7C27.2,8.9,8.9,27.2,8.9,49.7v101.5c0,22.6,18.3,40.9,40.9,40.9
	h24.8C52,192.1,33.7,173.8,33.7,151.2z"/>
<path class="st3" d="M199.6,341.4V218.7c0-9.8,2.9-19,7.8-26.7h0c8.8-13.7,24.1-22.8,41.6-22.8h-24.8c-17.5,0-32.8,9.1-41.6,22.8h0
	c-4.9,7.7-7.8,16.8-7.8,26.7v122.7c0,27.3,22.1,49.4,49.4,49.4H249C221.7,390.8,199.6,368.7,199.6,341.4z"/>
<g>
	<path class="st4" d="M49.7,201H79l-1.6,36.7c-0.1,3.3,1.6,6.4,4.5,8.1c1.4,0.8,2.9,1.2,4.4,1.2c1.7,0,3.4-0.5,4.8-1.4l68.9-44.6
		h8.7c-1.8,5.6-2.8,11.6-2.8,17.8v122.7c0,32.1,26.1,58.3,58.3,58.3h25.2l55.5,56.7c1.7,1.7,4,2.7,6.3,2.7c1,0,2-0.2,2.9-0.5
		c3.2-1.1,5.5-4.1,5.9-7.5l5.1-51.4h128.6c32.1,0,58.3-26.1,58.3-58.3V218.8c0-32.1-26.1-58.3-58.3-58.3H288.5
		c0.6-3,0.9-6.1,0.9-9.2V49.7c0-27.4-22.3-49.7-49.7-49.7H49.7C22.3,0,0,22.3,0,49.7v101.5C0,178.7,22.3,201,49.7,201z M453.7,178.2
		c22.4,0,40.6,18.2,40.6,40.5v122.7c0,22.4-18.2,40.5-40.6,40.5H317c-4.6,0-8.4,3.5-8.8,8l-4,40.5l-44.8-45.8
		c-1.7-1.7-4-2.7-6.3-2.7h-28.9c-22.4,0-40.5-18.2-40.5-40.5V218.8c0-22.4,18.2-40.5,40.5-40.5L453.7,178.2L453.7,178.2L453.7,178.2
		z M17.7,49.7c0-17.7,14.4-32,32-32h189.9c17.7,0,32,14.4,32,32v101.5c0,3.2-0.5,6.3-1.4,9.2h-46.2c-18.8,0-35.5,8.9-46.2,22.8
		h-20.7c-1.7,0-3.4,0.5-4.8,1.4l-56.6,36.7l1.2-28.8c0.1-2.4-0.8-4.8-2.5-6.5c-1.7-1.7-4-2.7-6.4-2.7H49.7c-17.6,0-32-14.4-32-32
		V49.7z"/>
	<path class="st4" d="M114.9,78.6c4.9,0,8.9-4,8.9-8.9c0-5.8,2.3-11.3,6.6-15.3c4.3-4,9.8-6,15.7-5.6c10.3,0.6,18.9,9.2,19.6,19.6
		c0.5,7.8-3.3,15.2-10,19.2c-12.4,7.6-19.8,20.7-19.8,35.1c0,4.9,4,8.9,8.9,8.9s8.9-4,8.9-8.9c0-8.1,4.2-15.6,11.3-19.9
		c12.3-7.5,19.3-21.1,18.4-35.5c-1.2-19.4-16.8-35-36.2-36.2c-10.8-0.7-21.1,3-28.9,10.4c-7.8,7.3-12.2,17.6-12.2,28.2
		C106,74.6,110,78.6,114.9,78.6z"/>
	<path class="st4" d="M338.9,306.7c4.9,0,8.9-4,8.9-8.9v-75.1c0-4.9-4-8.9-8.9-8.9s-8.9,4-8.9,8.9v75.1
		C330.1,302.8,334,306.7,338.9,306.7z"/>
	<circle class="st4" cx="338.9" cy="337.6" r="8.9"/>
	<circle class="st4" cx="144.7" cy="155.6" r="8.9"/>
</g>
</svg>
